<svg id="ecKUHbfgJe11" xmlns="http://www.w3.org/2000/svg" xmlns:xlink="http://www.w3.org/1999/xlink" viewBox="0 0 300 300" shape-rendering="geometricPrecision" text-rendering="geometricPrecision"><path d="M75.504836,45.773468c-98.06486,84.989545-50.061347,197.738549,117.910349,244.640215L149.999999,222.22608l-16.157345-53.655819c-11.176435-32.834099-3.663364-78.560365,0-78.560365.336884-7.9305,38.122556-39.792745,66.279508-53.343522c0,0-70.248382-14.486978-124.617326,9.107094Z" transform="translate(.000001 0)" fill="#f6f2ac" stroke="#161616"/><polygon points="0,-22.893335 6.728182,-9.260548 21.772855,-7.074429 10.886427,3.537215 13.456364,18.521097 0,11.446667 -13.456364,18.521097 -10.886427,3.537215 -21.772855,-7.074429 -6.728182,-9.260548 0,-22.893335" transform="matrix(-.410365 0.911922-.911922-.410365 182.683896 121.746931)" fill="#f6f2ac" stroke="#0f0f0f"/><polygon points="0,-30.486742 8.959829,-12.332146 28.994615,-9.420921 14.497307,4.710461 17.919657,24.664292 0,15.243371 -17.919657,24.664292 -14.497307,4.710461 -28.994615,-9.420921 -8.959829,-12.332146 0,-30.486742" transform="translate(203.560821 211.517704)" fill="#f6f2ac" stroke="#0f0f0f"/><polygon points="0,-26.129196 7.679178,-10.569482 24.850342,-8.074366 12.425171,4.037183 15.358356,21.138964 0,13.064598 -15.358356,21.138964 -12.425171,4.037183 -24.850342,-8.074366 -7.679178,-10.569482 0,-26.129196" transform="matrix(-.947554 0.319595-.319595-.947554 241.139283 89.387699)" fill="#f6f2ac" stroke="#0f0f0f"/></svg>