<svg id="e62L84h51o71" xmlns="http://www.w3.org/2000/svg" xmlns:xlink="http://www.w3.org/1999/xlink" viewBox="0 0 300 300" shape-rendering="geometricPrecision" text-rendering="geometricPrecision"><ellipse rx="69.348927" ry="70.215788" transform="translate(150 151.842349)" fill="#dec651" stroke="#000" stroke-width="2" stroke-miterlimit="2"/><rect width="5.950807" height="64" rx="0" ry="0" transform="translate(147.024596 230)" fill="#dec651" stroke="#000" stroke-miterlimit="2"/><rect width="5.950807" height="66" rx="0" ry="0" transform="translate(147.024596 7)" fill="#dec651" stroke="#000" stroke-miterlimit="2"/><rect width="60.301508" height="7.934408" rx="0" ry="0" transform="translate(230 151)" fill="#dec651" stroke="#000" stroke-miterlimit="2"/><rect width="60.301508" height="7.934408" rx="0" ry="0" transform="translate(12 151)" fill="#dec651" stroke="#000" stroke-miterlimit="2"/><rect width="9.323685" height="92" rx="0" ry="0" transform="matrix(.731354 0.681998-.681998 0.731354 258.41331 18.791192)" fill="#dec651" stroke="#000" stroke-miterlimit="2"/><rect width="9.323685" height="94" rx="0" ry="0" transform="matrix(.615661-.788011 0.788011 0.615661 10 41.347164)" fill="#dec651" stroke="#000" stroke-miterlimit="2"/><rect width="10" height="94" rx="0" ry="0" transform="matrix(.766044 0.642788-.642788 0.766044 91.422035 217)" fill="#dec651" stroke="#000" stroke-miterlimit="2"/><rect width="10" height="94" rx="0" ry="0" transform="matrix(.642788-.766044 0.766044 0.642788 217.546405 230.161578)" fill="#dec651" stroke="#000" stroke-miterlimit="2"/><rect width="60.301508" height="7.934408" rx="0" ry="0" transform="translate(230 151)" fill="#dec651" stroke="#000" stroke-miterlimit="2"/></svg>